<?xml version="1.0" encoding="utf-8"?>
<!-- Generator: Adobe Illustrator 19.2.0, SVG Export Plug-In . SVG Version: 6.00 Build 0)  -->
<svg version="1.1" id="Layer_1" xmlns="http://www.w3.org/2000/svg" xmlns:xlink="http://www.w3.org/1999/xlink" x="0px" y="0px"
	 viewBox="0 0 197.4 197.4" style="enable-background:new 0 0 197.4 197.4;" xml:space="preserve">
<style type="text/css">
	.st0{fill:#FFFFFF;}
</style>
<g>
	<path class="st0" d="M98.7,197.2C44.3,197.2,0,153,0,98.5C0,44.1,44.3-0.1,98.7-0.1c54.4,0,98.7,44.3,98.7,98.7
		C197.4,153,153.1,197.2,98.7,197.2z M98.7,5.5c-51.3,0-93,41.7-93,93c0,51.3,41.7,93,93,93c51.3,0,93-41.7,93-93
		C191.7,47.2,150,5.5,98.7,5.5z"/>
	<path class="st0" d="M94.7,74.5c1.8,2.5,2.7,5.5,2.7,9c0,3.6-0.9,6.5-2.7,8.7c-1,1.2-2.5,2.4-4.5,3.4c3,1.1,5.3,2.8,6.8,5.2
		c1.5,2.4,2.3,5.3,2.3,8.7c0,3.5-0.9,6.7-2.6,9.4c-1.1,1.8-2.5,3.4-4.2,4.7c-1.9,1.5-4.1,2.4-6.7,3c-2.6,0.5-5.4,0.8-8.4,0.8H50.8
		V68.2h28.6C86.6,68.3,91.7,70.4,94.7,74.5z M62.6,78.5v13.1H77c2.6,0,4.7-0.5,6.3-1.5c1.6-1,2.4-2.7,2.4-5.2c0-2.8-1.1-4.6-3.2-5.5
		c-1.8-0.6-4.2-0.9-7-0.9H62.6z M62.6,101.3v15.8H77c2.6,0,4.6-0.3,6-1c2.6-1.3,3.9-3.8,3.9-7.4c0-3.1-1.2-5.2-3.8-6.4
		c-1.4-0.6-3.4-1-5.9-1H62.6z M135.2,84.5c3.1,1.4,5.6,3.5,7.6,6.5c1.8,2.6,3,5.6,3.5,9.1c0.3,2,0.4,4.9,0.4,8.7h-31.9
		c0.2,4.4,1.7,7.5,4.6,9.2c1.8,1.1,3.9,1.6,6.3,1.6c2.6,0,4.7-0.7,6.4-2c0.9-0.7,1.7-1.7,2.4-3H146c-0.3,2.6-1.7,5.2-4.2,7.9
		c-3.9,4.3-9.4,6.4-16.5,6.4c-5.8,0-11-1.8-15.4-5.4c-4.5-3.6-6.7-9.4-6.7-17.5c0-7.6,2-13.4,6-17.5c4-4,9.2-6.1,15.7-6.1
		C128.7,82.4,132.1,83.1,135.2,84.5z M118,94.4c-1.6,1.7-2.6,3.9-3.1,6.8h19.7c-0.2-3-1.2-5.3-3-6.9c-1.8-1.6-4.1-2.4-6.8-2.4
		C121.9,91.9,119.7,92.7,118,94.4z M137.4,70.9H112v7.4h25.4V70.9z"/>
</g>
</svg>
