<?xml version="1.0" encoding="utf-8"?>
<!-- Generator: Adobe Illustrator 19.2.0, SVG Export Plug-In . SVG Version: 6.00 Build 0)  -->
<svg version="1.1" id="Layer_1" xmlns="http://www.w3.org/2000/svg" xmlns:xlink="http://www.w3.org/1999/xlink" x="0px" y="0px"
	 viewBox="0 0 362.1 161.4" style="enable-background:new 0 0 362.1 161.4;" xml:space="preserve">
<style type="text/css">
	.st0{fill:#010101;}
</style>
<path class="st0" d="M118.1,95.4c-8.7,15.1-25,25.4-43.7,25.4C46.6,120.7,24,98.1,24,70.4S46.6,20,74.4,20c16.8,0,31.8,8.3,40.9,21
	l16.3-11.6C118.7,11.6,97.9,0,74.4,0C35.6,0,4,31.6,4,70.4c0,38.8,31.6,70.4,70.4,70.4c25.7,0,48.2-13.8,60.5-34.4L118.1,95.4z"/>
<path class="st0" d="M218.2,96.5c-7,11.5-18,19.6-31.1,22.8c-4,1-8,1.5-12,1.5c-15.7,0-30-7.2-39.3-18.9l106.5-52.4
	C233.2,20.2,206.2,0,175.2,0c-5.6,0-11.3,0.7-16.8,2c-37.7,9.2-60.9,47.4-51.6,85.1c7.7,31.6,35.8,53.7,68.3,53.7
	c5.6,0,11.3-0.7,16.8-2c18.3-4.5,33.7-15.8,43.4-31.8c2.9-4.8,5.2-9.8,6.8-14.9l-20.5-2.2C220.7,92.1,219.5,94.4,218.2,96.5z
	 M163.2,21.5c4-1,8-1.5,12-1.5c16.4,0,31.2,7.8,40.4,20.4l-88.9,43.7c-0.2-0.6-0.3-1.2-0.5-1.8C119.6,55.4,136.2,28.1,163.2,21.5z"
	/>
<path class="st0" d="M291.9,0.1c-38.8,0-70.4,31.6-70.4,70.4c0,0.4,0.1,90.9,0.1,90.9l19.4,0v-41.9c13,13.1,30.9,21.3,50.6,21.3
	c38.8,0,70.5-31.6,70.5-70.4S330.7,0.1,291.9,0.1z M291.9,120.8c-27.8,0-50.4-22.6-50.4-50.4s22.6-50.4,50.4-50.4
	c27.8,0,50.4,22.6,50.4,50.4S319.6,120.8,291.9,120.8z"/>
</svg>
