<?xml version="1.0" encoding="utf-8"?>
<!-- Generator: Adobe Illustrator 19.2.0, SVG Export Plug-In . SVG Version: 6.00 Build 0)  -->
<svg version="1.1" id="Layer_1" xmlns="http://www.w3.org/2000/svg" xmlns:xlink="http://www.w3.org/1999/xlink" x="0px" y="0px"
	 viewBox="0 0 197.4 197.4" style="enable-background:new 0 0 197.4 197.4;" xml:space="preserve">
<style type="text/css">
	.st0{fill:#FFFFFF;}
</style>
<path class="st0" d="M98.7,197.2C44.3,197.2,0,153,0,98.5C0,44.1,44.3-0.1,98.7-0.1s98.7,44.3,98.7,98.7S153.1,197.2,98.7,197.2z
	 M98.7,5.5c-51.3,0-93,41.7-93,93s41.7,93,93,93s93-41.7,93-93S150,5.5,98.7,5.5z"/>
<path class="st0" d="M88,119.6c0,1.6-0.3,3.2-0.8,4.9s-1.4,3.2-2.6,4.6c-1.2,1.4-2.7,2-4.4,2c-1.7,0-3.1-0.7-4.4-2
	c-1.2-1.4-2.1-2.9-2.6-4.6s-0.8-3.3-0.8-4.9s0.3-3.2,0.8-4.9c0.5-1.7,1.4-3.2,2.6-4.6c1.2-1.4,2.7-2,4.4-2c1.7,0,3.1,0.7,4.4,2
	c1.2,1.4,2.1,2.9,2.6,4.6C87.7,116.3,88,118,88,119.6z M126.4,119.6c0,1.6-0.3,3.2-0.8,4.9s-1.4,3.2-2.6,4.6c-1.2,1.4-2.7,2-4.4,2
	c-1.7,0-3.1-0.7-4.4-2c-1.2-1.4-2.1-2.9-2.6-4.6c-0.5-1.7-0.8-3.3-0.8-4.9s0.3-3.2,0.8-4.9c0.5-1.7,1.4-3.2,2.6-4.6
	c1.2-1.4,2.7-2,4.4-2c1.7,0,3.1,0.7,4.4,2c1.2,1.4,2.1,2.9,2.6,4.6C126.2,116.3,126.4,118,126.4,119.6z M136,119.6
	c0-4.8-1.4-8.9-4.1-12.3s-6.5-5-11.2-5c-1.6,0-5.5,0.4-11.7,1.3c-2.8,0.4-6,0.7-9.4,0.7s-6.6-0.2-9.4-0.7c-6.1-0.8-10-1.3-11.7-1.3
	c-4.7,0-8.5,1.7-11.2,5c-2.8,3.4-4.1,7.5-4.1,12.3c0,3.5,0.6,6.6,1.9,9.2c1.3,2.6,2.9,4.7,4.9,6.2c2,1.5,4.4,2.7,7.3,3.6
	c2.9,0.9,5.7,1.5,8.4,1.8s5.7,0.4,9,0.4h10.1c3.3,0,6.3-0.1,9-0.4c2.7-0.3,5.5-0.9,8.4-1.8c2.9-0.9,5.4-2.1,7.3-3.6
	c2-1.5,3.6-3.6,4.9-6.2C135.4,126.2,136,123.1,136,119.6z M149.5,109c0,8.3-1.2,14.9-3.7,19.9c-1.5,3.1-3.6,5.7-6.3,8
	s-5.5,4-8.5,5.2s-6.4,2.2-10.2,2.9c-3.9,0.7-7.3,1.1-10.3,1.3c-3,0.2-6.4,0.3-10,0.3c-3.1,0-6-0.1-8.5-0.2c-2.6-0.1-5.5-0.4-8.9-0.8
	c-3.3-0.4-6.4-1-9.2-1.8c-2.8-0.8-5.5-1.9-8.2-3.1c-2.7-1.2-5.1-2.9-7.3-4.9s-3.8-4.3-5.2-6.9c-2.5-4.9-3.7-11.6-3.7-19.9
	c0-9.5,2.7-17.4,8.2-23.8c-1.1-3.3-1.6-6.7-1.6-10.2c0-4.6,1-9,3.1-13.1c4.3,0,8.1,0.8,11.4,2.4c3.3,1.6,7.1,4.1,11.4,7.4
	c5.9-1.4,12.1-2.1,18.6-2.1c5.9,0,11.5,0.6,16.8,1.9c4.2-3.3,8-5.7,11.2-7.3c3.3-1.6,7.1-2.3,11.4-2.3c2,4.1,3.1,8.5,3.1,13.1
	c0,3.5-0.5,6.9-1.6,10.1C146.8,91.5,149.5,99.5,149.5,109z"/>
</svg>
