<?xml version="1.0" encoding="utf-8"?>
<!-- Generator: Adobe Illustrator 19.2.0, SVG Export Plug-In . SVG Version: 6.00 Build 0)  -->
<svg version="1.1" id="Layer_1" xmlns="http://www.w3.org/2000/svg" xmlns:xlink="http://www.w3.org/1999/xlink" x="0px" y="0px"
	 viewBox="0 0 197.4 197.4" style="enable-background:new 0 0 197.4 197.4;" xml:space="preserve">
<style type="text/css">
	.st0{fill:#FFFFFF;}
</style>
<g>
	<path class="st0" d="M98.7,197.2C44.3,197.2,0,153,0,98.5C0,44.1,44.3-0.1,98.7-0.1s98.7,44.3,98.7,98.7
		C197.4,153,153.1,197.2,98.7,197.2z M98.7,5.5c-51.3,0-93,41.7-93,93c0,51.3,41.7,93,93,93c51.3,0,93-41.7,93-93
		C191.7,47.2,150,5.5,98.7,5.5z"/>
	<path class="st0" d="M128.1,50.6H69.3c-10.2,0-18.5,8.3-18.5,18.5v19.6V128c0,10.2,8.3,18.5,18.5,18.5h58.8
		c10.2,0,18.5-8.3,18.5-18.5V88.7V69.1C146.6,58.9,138.3,50.6,128.1,50.6z M133.4,61.7l2.1,0v2.1v14.1L119.3,78l-0.1-16.2
		L133.4,61.7z M85,88.7c3.1-4.2,8-7,13.7-7s10.6,2.8,13.7,7c2,2.8,3.2,6.2,3.2,9.8c0,9.3-7.6,16.9-16.9,16.9s-16.9-7.6-16.9-16.9
		C81.8,94.9,83,91.5,85,88.7z M137.3,128c0,5.1-4.1,9.2-9.2,9.2H69.3c-5.1,0-9.2-4.1-9.2-9.2V88.7h14.3c-1.2,3-1.9,6.4-1.9,9.8
		c0,14.5,11.8,26.2,26.2,26.2c14.5,0,26.2-11.8,26.2-26.2c0-3.5-0.7-6.8-1.9-9.8h14.3V128z"/>
</g>
</svg>
