<?xml version="1.0" encoding="utf-8"?>
<!-- Generator: Adobe Illustrator 19.2.0, SVG Export Plug-In . SVG Version: 6.00 Build 0)  -->
<svg version="1.1" id="Layer_1" xmlns="http://www.w3.org/2000/svg" xmlns:xlink="http://www.w3.org/1999/xlink" x="0px" y="0px"
	 viewBox="0 0 197.4 197.4" style="enable-background:new 0 0 197.4 197.4;" xml:space="preserve">
<style type="text/css">
	.st0{fill:#FFFFFF;}
</style>
<g>
	<path class="st0" d="M98.7,197.2C44.3,197.2,0,153,0,98.5C0,44.1,44.3-0.1,98.7-0.1s98.7,44.3,98.7,98.7
		C197.4,153,153.1,197.2,98.7,197.2z M98.7,5.5c-51.3,0-93,41.7-93,93c0,51.3,41.7,93,93,93c51.3,0,93-41.7,93-93
		C191.7,47.2,150,5.5,98.7,5.5z"/>
	<path class="st0" d="M71.9,138.6H53.2V78.8h18.7V138.6z M62,71.4h-0.1c-6.8,0-11.1-4.6-11.1-10.4c0-5.9,4.5-10.4,11.4-10.4
		c6.9,0,11.1,4.5,11.3,10.4C73.4,66.8,69.1,71.4,62,71.4z M146.6,138.6h-21.2v-30.9c0-8.1-3.3-13.6-10.6-13.6
		c-5.6,0-8.7,3.7-10.1,7.3c-0.5,1.3-0.5,3.1-0.5,4.9v32.4h-21c0,0,0.3-54.8,0-59.8h21v9.4c1.2-4.1,7.9-10,18.7-10
		c13.3,0,23.7,8.6,23.7,27.1V138.6z"/>
</g>
</svg>
