<?xml version="1.0" encoding="utf-8"?>
<!-- Generator: Adobe Illustrator 19.2.0, SVG Export Plug-In . SVG Version: 6.00 Build 0)  -->
<svg version="1.1" id="Layer_1" xmlns="http://www.w3.org/2000/svg" xmlns:xlink="http://www.w3.org/1999/xlink" x="0px" y="0px"
	 viewBox="0 0 197.4 197.4" style="enable-background:new 0 0 197.4 197.4;" xml:space="preserve">
<style type="text/css">
	.st0{fill:#FFFFFF;}
</style>
<path class="st0" d="M98.7,197.4C44.3,197.4,0,153.1,0,98.7C0,44.3,44.3,0,98.7,0s98.7,44.3,98.7,98.7
	C197.4,153.1,153.1,197.4,98.7,197.4z M98.7,5.6c-51.3,0-93,41.7-93,93c0,51.3,41.7,93,93,93s93-41.7,93-93
	C191.7,47.4,150,5.6,98.7,5.6z"/>
<path class="st0" d="M99.7,50.7V75h22.7v15H99.7v24.6c0,5.6,0.3,9.1,0.9,10.7c0.6,1.6,1.7,2.8,3.3,3.8c2.1,1.3,4.5,1.9,7.3,1.9
	c4.9,0,9.7-1.6,14.5-4.7v15.1c-4.1,1.9-7.8,3.3-11.1,4.1c-3.3,0.8-6.9,1.2-10.8,1.2c-4.4,0-8.3-0.6-11.6-1.7
	c-3.4-1.1-6.2-2.7-8.6-4.7c-2.4-2-4-4.2-4.9-6.5c-0.9-2.3-1.4-5.6-1.4-10V90H66.6V76.5c3.8-1.2,7-3,9.7-5.3c2.7-2.3,4.8-5,6.5-8.2
	c1.6-3.2,2.7-7.3,3.4-12.2H99.7z"/>
</svg>
