<?xml version="1.0" encoding="utf-8"?>
<!-- Generator: Adobe Illustrator 19.2.0, SVG Export Plug-In . SVG Version: 6.00 Build 0)  -->
<svg version="1.1" id="Layer_1" xmlns="http://www.w3.org/2000/svg" xmlns:xlink="http://www.w3.org/1999/xlink" x="0px" y="0px"
	 viewBox="0 0 197.4 197.4" style="enable-background:new 0 0 197.4 197.4;" xml:space="preserve">
<style type="text/css">
	.st0{fill:#FFFFFF;}
</style>
<path class="st0" d="M98.7,197.2C44.3,197.2,0,153,0,98.5C0,44.1,44.3-0.1,98.7-0.1c54.4,0,98.7,44.3,98.7,98.7
	C197.4,153,153.1,197.2,98.7,197.2z M98.7,5.5c-51.3,0-93,41.7-93,93s41.7,93,93,93c51.3,0,93-41.7,93-93S150,5.5,98.7,5.5z"/>
<path class="st0" d="M146.8,73.4c-3.5,1.6-7.3,2.6-11.3,3.1c4.1-2.4,7.2-6.3,8.7-10.9c-3.8,2.3-8,3.9-12.5,4.8
	c-3.6-3.8-8.7-6.2-14.4-6.2c-10.9,0-19.7,8.8-19.7,19.7c0,1.5,0.2,3,0.5,4.5c-16.4-0.8-30.9-8.7-40.6-20.6c-1.7,2.9-2.7,6.3-2.7,9.9
	c0,6.8,3.5,12.9,8.8,16.4c-3.2-0.1-6.3-1-8.9-2.5v0.2c0,9.5,6.8,17.5,15.8,19.3c-1.7,0.5-3.4,0.7-5.2,0.7c-1.3,0-2.5-0.1-3.7-0.3
	c2.5,7.8,9.8,13.5,18.4,13.7c-6.7,5.3-15.2,8.4-24.5,8.4c-1.6,0-3.2-0.1-4.7-0.3c8.7,5.6,19.1,8.8,30.2,8.8
	c36.2,0,56.1-30,56.1-56.1c0-0.9,0-1.7-0.1-2.5C140.8,80.9,144.2,77.4,146.8,73.4"/>
</svg>
